<?xml version="1.0" encoding="utf-8"?>
<!-- Generator: Adobe Illustrator 26.5.1, SVG Export Plug-In . SVG Version: 6.00 Build 0)  -->
<svg version="1.1" id="Calque_1" xmlns="http://www.w3.org/2000/svg" xmlns:xlink="http://www.w3.org/1999/xlink" x="0px" y="0px"
	 viewBox="0 0 166 31.2" style="enable-background:new 0 0 166 31.2;" xml:space="preserve">
<style type="text/css">
	.st0{fill:#9D9D9C;}
	.st1{fill:#D60E4D;}
</style>
<g>
	<path class="st0" d="M106.8,8.2c-1.3-1.5-3.2-2.4-5.4-2.4c-4.6,0-7.9,3.4-7.9,7.9s3.4,8.1,7.9,8.1c2.2,0,4.1-0.9,5.6-2.4v2.2l2.4-1
		V7.1l-2.4-1v2.2H106.8z M101.4,19.5c-3.2,0-5.6-2.4-5.6-5.7c0-3.2,2.4-5.6,5.6-5.6c3.8,0,5.6,2.9,5.6,5.6c0,1.5-0.4,2.9-1.5,3.8
		C104.4,19,103,19.5,101.4,19.5z"/>
	<rect x="113.1" class="st0" width="2.4" height="21.7"/>
	<polygon class="st0" points="127.2,15 125.9,18.2 124.7,15.1 121.2,6.2 118.6,6.2 124.6,21 121.6,27.8 124.3,27.8 133.7,6.2 
		131,6.2 	"/>
	<path class="st0" d="M142.1,8.2c1.6,0,3.1,0.6,4.1,1.6l0.3,0.4l1.6-1.6l-0.3-0.3c-1.5-1.5-3.5-2.4-5.7-2.4c-4.7,0-8.1,3.2-8.1,7.9
		c0,4.6,3.4,7.9,8.1,7.9c2.2,0,4.1-0.9,5.7-2.4l0.3-0.3l-1.6-1.6l-0.3,0.3c-1,1-2.5,1.6-4,1.6c-2.8,0-5.6-1.8-5.6-5.6
		S139.3,8.2,142.1,8.2z"/>
	<path class="st0" d="M157,6.5c-4.3,0-7.8,3.4-7.8,7.6s3.5,7.6,7.8,7.6c3.2,0,6-1.9,7.2-4.8l0.3-0.6h-2.4l-0.1,0.3
		c-1,1.9-2.9,3.1-5,3.1c-3.1,0-5.6-2.5-5.6-5.6s2.5-5.6,5.6-5.6c2.6,0,5,1.9,5.6,4.6H154l-1,2.1h11.8v-0.4c0-0.3,0-0.4,0-0.7
		C164.8,10,161.3,6.5,157,6.5z"/>
	<g>
		<path class="st0" d="M82,10.9c1-1.8,2.9-2.5,4.8-2.5c1.6,0,3.1,0.6,4.1,1.6l0.3,0.3l1.6-1.6l-0.3-0.4c-1.5-1.5-3.5-2.4-5.7-2.4
			c-1.9,0-3.5,0.6-4.8,1.5V10.9z"/>
		<path class="st0" d="M90.9,17.9c-1,1-2.5,1.6-4,1.6c-1.9,0-3.8-0.7-4.8-2.5v3.4c1.3,0.9,2.9,1.5,4.8,1.5c2.2,0,4.1-0.9,5.7-2.4
			l0.3-0.3l-1.6-1.6L90.9,17.9z"/>
	</g>
	<path class="st1" d="M13.4,8.1C12,6.6,10.1,5.7,7.8,5.7C3.4,5.7,0,9.1,0,13.7s3.4,8.1,7.9,8.1c2.2,0,4.1-0.9,5.6-2.4v2.2l2.4-1V6.9
		l-2.5-1V8.1z M7.9,19.4c-3.2,0-5.6-2.4-5.6-5.7c0-3.2,2.4-5.6,5.6-5.6c3.8,0,5.6,2.9,5.6,5.6c0,1.5-0.4,2.9-1.5,3.8
		C11.2,18.8,9.7,19.4,7.9,19.4z"/>
	<path class="st1" d="M77.9,8.1c-1.3-1.5-3.2-2.4-5.6-2.4c-4.6,0-7.9,3.4-7.9,7.9s3.4,8.1,7.9,8.1c2.2,0,4.1-0.9,5.6-2.4v2.2l2.4-1
		V6.9l-2.4-1V8.1z M72.3,19.4c-3.2,0-5.6-2.4-5.6-5.7c0-3.2,2.4-5.6,5.6-5.6c3.8,0,5.6,2.9,5.6,5.6c0,1.5-0.4,2.9-1.5,3.8
		C75.5,18.8,74,19.4,72.3,19.4z"/>
	<path class="st1" d="M29.5,19.4c2.1-1.3,3.4-3.7,3.4-6.2c0-2.1-0.6-3.7-1.6-5l1.5-1.8L31.1,5l-1.5,1.8C28.5,6,27,5.6,25.6,5.6
		c-4.4,0-7.3,3.1-7.3,7.6c0,4.4,3.1,7.6,7.3,7.6c2.5,0,5,1,5,4c0,3.7-3.8,4-5,4c-2.4,0-5-1-5-4v-0.4h-2.4v0.4c0,3.8,2.9,6.3,7.5,6.3
		s7.5-2.4,7.5-6.3C32.9,22.3,31.7,20.6,29.5,19.4z M25.6,8.1c3.1,0,5,2.1,5,5.1c0,2.8-2.4,5.1-5,5.1c-3.2,0-5-2.6-5-5.1
		C20.6,9.4,23.1,8.1,25.6,8.1z"/>
	<path class="st1" d="M42.6,5.7c-4.6,0-7.9,3.4-7.9,8.1s3.2,7.9,7.9,7.9s7.9-3.2,7.9-7.9S47.2,5.7,42.6,5.7z M42.6,19.4
		c-3.2,0-5.6-2.4-5.6-5.6c0-3.4,2.4-5.7,5.6-5.7c3.2,0,5.6,2.5,5.6,5.7S45.8,19.4,42.6,19.4z"/>
	<path class="st1" d="M60.2,5.7c-1.8,0-3.4,0.6-4.4,1.8V5.9h-2.4v15.6h2.4v-9c0-2.5,1.9-4.4,4.4-4.4c0.9,0,1.6,0.1,2.2,0.6L62.9,9
		L64,6.9l-0.4-0.3C62.4,6,61.4,5.7,60.2,5.7z"/>
	<polygon class="st1" points="164.8,1.9 160.9,6.2 162,7.2 166,3.1 	"/>
	<g>
		<path class="st0" d="M40,28.1v0.3c0,0.7-0.1,1-0.3,1.3c-0.3,0.3-0.7,0.4-1.5,0.4c-1,0-1.5-0.3-1.6-1h0.6c0,0.4,0.3,0.6,1,0.6
			c0.6,0,0.9-0.1,1-0.4c0-0.1,0.1-0.3,0.1-0.6v-0.4c-0.4,0.4-0.7,0.6-1.2,0.6c-0.4,0-0.9-0.1-1.2-0.4c-0.3-0.4-0.6-0.9-0.6-1.5
			c0-1.2,0.7-2.1,1.8-2.1c0.4,0,0.9,0.1,1.2,0.6V25H40C40,25,40,28.1,40,28.1z M37,26.7c0,0.9,0.4,1.5,1.2,1.5s1.2-0.6,1.2-1.5
			c0-0.6-0.1-0.9-0.3-1.2c-0.1-0.1-0.6-0.3-0.9-0.3C37.5,25.3,37,25.9,37,26.7z"/>
		<path class="st0" d="M41.6,25.6c0.4-0.6,0.7-0.7,1.2-0.7c0.1,0,0.1,0,0.3,0v0.6c-0.1,0-0.3,0-0.3,0c-0.4,0-0.9,0.3-1,0.6
			c-0.1,0.3-0.1,0.4-0.1,1v1.9h-0.7v-4h0.6v0.6H41.6z"/>
		<path class="st0" d="M47.2,26.9c0,1.3-0.7,2.1-1.9,2.1s-1.9-0.9-1.9-2.1c0-1.3,0.7-2.1,1.9-2.1C46.4,24.7,47.2,25.6,47.2,26.9z
			 M44.1,26.9c0,0.9,0.4,1.6,1.3,1.6c0.7,0,1.3-0.6,1.3-1.6c0-0.9-0.4-1.6-1.3-1.6C44.5,25.3,44.1,25.9,44.1,26.9z"/>
		<path class="st0" d="M51.3,28.8h-0.6v-0.6c-0.3,0.4-0.7,0.6-1.2,0.6c-0.6,0-1-0.3-1.3-0.7C48,27.9,48,27.8,48,27.3v-2.6h0.6v2.5
			c0,0.3,0,0.4,0.1,0.6c0.1,0.3,0.4,0.4,0.7,0.4c0.3,0,0.7-0.1,0.9-0.4c0.1-0.1,0.3-0.4,0.3-0.9v-2.2h0.6V28.8z"/>
		<path class="st0" d="M52.3,30.1v-5.3h0.6v0.6c0.3-0.4,0.7-0.6,1.3-0.6c1,0,1.8,0.9,1.8,2.1c0,1.3-0.7,2.1-1.8,2.1
			c-0.6,0-0.9-0.1-1.3-0.7v1.9C52.9,30.1,52.3,30.1,52.3,30.1z M53.2,25.7c-0.1,0.3-0.3,0.6-0.3,1c0,0.6,0.1,0.9,0.3,1.2
			c0.1,0.3,0.6,0.4,0.9,0.4c0.7,0,1.2-0.6,1.2-1.6c0-1-0.4-1.6-1.2-1.6C53.8,25.3,53.3,25.4,53.2,25.7z"/>
		<path class="st0" d="M57.1,27c0.1,0.9,0.6,1.5,1.3,1.5c0.6,0,0.9-0.3,1-0.7h0.7c-0.3,0.9-0.9,1.3-1.8,1.3c-1.2,0-1.9-0.9-1.9-2.1
			c0-1.3,0.7-2.1,1.9-2.1c0.7,0,1.5,0.4,1.8,1.2c0.1,0.3,0.1,0.6,0.1,1.2h-3.2V27z M59.6,26.4c-0.1-0.7-0.6-1.2-1.2-1.2
			c-0.7,0-1.2,0.4-1.2,1.2H59.6z"/>
		<path class="st0" d="M64,25.6h3.1v0.6H64v1.9h3.4v0.6h-4.1v-5.6h4.1v0.6H64V25.6z"/>
		<path class="st0" d="M68.8,23.2v0.6c0,0.6-0.3,1-0.7,1.2v-0.3c0.3-0.1,0.3-0.3,0.3-0.7H68v-0.7C68,23.2,68.8,23.2,68.8,23.2z"/>
		<path class="st0" d="M70.4,25.4c0.3-0.4,0.7-0.7,1.3-0.7c0.7,0,1.3,0.4,1.3,1.3v2.8h-0.6v-2.5c0-0.3,0-0.6-0.1-0.7
			c-0.1-0.3-0.4-0.3-0.7-0.3c-0.4,0-0.9,0.3-1,0.6c0,0.1-0.1,0.3-0.1,0.6v2.4h-0.6v-4h0.6C70.4,24.8,70.4,25.4,70.4,25.4z"/>
		<path class="st0" d="M74.5,27c0.1,0.9,0.6,1.5,1.3,1.5c0.6,0,0.9-0.3,1-0.7h0.7c-0.3,0.9-0.9,1.3-1.8,1.3c-1.2,0-1.9-0.9-1.9-2.1
			c0-1.3,0.7-2.1,1.9-2.1c0.7,0,1.5,0.4,1.8,1.2c0.1,0.3,0.1,0.6,0.1,1.2h-3.2V27z M77,26.4c-0.1-0.7-0.6-1.2-1.2-1.2
			c-0.7,0-1.2,0.4-1.2,1.2H77z"/>
		<path class="st0" d="M79,25.6c0.4-0.6,0.7-0.7,1.2-0.7c0.1,0,0.1,0,0.3,0v0.6c-0.1,0-0.3,0-0.3,0c-0.4,0-0.9,0.3-1,0.6
			C79,26.3,79,26.4,79,27v1.9h-0.7v-4h0.6v0.6H79z"/>
		<path class="st0" d="M84.3,28.1v0.3c0,0.7-0.1,1-0.3,1.3c-0.3,0.3-0.7,0.4-1.5,0.4c-1,0-1.5-0.3-1.6-1h0.6c0,0.4,0.3,0.6,1,0.6
			c0.6,0,0.9-0.1,1-0.4c0-0.1,0.1-0.3,0.1-0.6v-0.4c-0.4,0.4-0.7,0.6-1.2,0.6c-0.4,0-0.9-0.1-1.2-0.4c-0.3-0.4-0.6-0.9-0.6-1.5
			c0-1.2,0.7-2.1,1.8-2.1c0.4,0,0.9,0.1,1.2,0.6V25h0.6C84.3,25,84.3,28.1,84.3,28.1z M81.4,26.7c0,0.9,0.4,1.5,1.2,1.5
			s1.2-0.6,1.2-1.5c0-0.6-0.1-0.9-0.3-1.2c-0.1-0.1-0.6-0.3-0.9-0.3C82,25.3,81.4,25.9,81.4,26.7z"/>
		<path class="st0" d="M86.8,28.1l1.2-3.2h0.7L87,29.2c-0.3,0.7-0.6,0.9-1,0.9c-0.1,0-0.3,0-0.6-0.1v-0.6c0.1,0.1,0.3,0.1,0.4,0.1
			c0.3,0,0.4-0.1,0.6-0.4l0.3-0.6l-1.6-3.8h0.7L86.8,28.1z"/>
		<path class="st0" d="M91.4,26c0-0.3,0-0.4-0.1-0.4c-0.1-0.1-0.4-0.3-0.7-0.3c-0.6,0-0.9,0.1-0.9,0.6c0,0.1,0.1,0.3,0.3,0.3
			c0.1,0.1,0.3,0.1,0.9,0.3c1,0.3,1.5,0.6,1.5,1.2c0,0.7-0.6,1.2-1.6,1.2c-1.2,0-1.8-0.6-1.8-1.5h0.6c0,0.6,0.4,0.9,1.2,0.9
			c0.6,0,1-0.3,1-0.7c0-0.1-0.1-0.3-0.1-0.4c-0.1-0.1-0.3-0.1-1.2-0.3c-0.4-0.1-0.7-0.3-1-0.4c-0.1-0.1-0.3-0.4-0.3-0.7
			c0-0.7,0.6-1.2,1.6-1.2c0.9,0,1.5,0.4,1.6,1.3h-0.9V26z"/>
	</g>
</g>
</svg>
