<svg width="253" height="43" viewBox="0 0 253 43" fill="none" xmlns="http://www.w3.org/2000/svg">
<path d="M72.7066 20.8148C72.7066 22.315 72.5236 23.7638 72.1575 25.161C71.8049 26.5436 71.3032 27.8452 70.6523 29.066C70.0014 30.272 69.2149 31.3751 68.2929 32.3753C67.3708 33.3754 66.3538 34.2358 65.2419 34.9565C64.13 35.6625 62.9299 36.2067 61.6417 36.5891C60.3535 36.9862 59.0178 37.1848 57.6347 37.1848C56.2516 37.1848 54.916 36.9862 53.6278 36.5891C52.3531 36.2067 51.1531 35.6625 50.0276 34.9565C48.9157 34.2358 47.8987 33.3754 46.9766 32.3753C46.0545 31.3751 45.2613 30.272 44.5968 29.066C43.9459 27.8452 43.4374 26.5436 43.0713 25.161C42.7188 23.7638 42.5425 22.315 42.5425 20.8148C42.5425 19.3146 42.7188 17.8659 43.0713 16.4686C43.4374 15.0714 43.9459 13.7697 44.5968 12.5637C45.2613 11.3576 46.0545 10.2545 46.9766 9.2544C47.8987 8.25427 48.9157 7.40121 50.0276 6.69523C51.1531 5.98925 52.3531 5.44505 53.6278 5.06265C54.916 4.66553 56.2516 4.46698 57.6347 4.46698C59.0178 4.46698 60.3535 4.66553 61.6417 5.06265C62.9299 5.44505 64.13 5.98925 65.2419 6.69523C66.3538 7.40121 67.3708 8.25427 68.2929 9.2544C69.2149 10.2545 70.0014 11.3576 70.6523 12.5637C71.3032 13.7697 71.8049 15.0714 72.1575 16.4686C72.5236 17.8659 72.7066 19.3146 72.7066 20.8148ZM66.9097 20.8148C66.9097 19.4323 66.6657 18.1306 66.1775 16.9099C65.6894 15.6744 65.0249 14.6081 64.1842 13.7109C63.357 12.799 62.3739 12.0783 61.2349 11.5488C60.1094 11.0194 58.9094 10.7546 57.6347 10.7546C56.3465 10.7546 55.1397 11.0194 54.0142 11.5488C52.8887 12.0783 51.9056 12.799 51.0649 13.7109C50.2242 14.6081 49.5598 15.6744 49.0716 16.9099C48.5834 18.1306 48.3394 19.4323 48.3394 20.8148C48.3394 22.1974 48.5834 23.499 49.0716 24.7198C49.5598 25.9258 50.2242 26.9848 51.0649 27.8967C51.9056 28.8086 52.8887 29.5293 54.0142 30.0588C55.1397 30.5882 56.3465 30.853 57.6347 30.853C58.9094 30.853 60.1094 30.5882 61.2349 30.0588C62.3739 29.5293 63.357 28.8086 64.1842 27.8967C65.0249 26.9848 65.6894 25.9258 66.1775 24.7198C66.6657 23.499 66.9097 22.1974 66.9097 20.8148Z" fill="url(#paint0_linear_807_182)"/>
<path d="M90.7197 11.1959V23.8594H96.5573C97.3573 23.8594 98.1099 23.6976 98.815 23.374C99.5201 23.0357 100.137 22.5798 100.666 22.0062C101.195 21.4326 101.608 20.7634 101.907 19.9985C102.219 19.219 102.374 18.3954 102.374 17.5276C102.374 16.6598 102.219 15.8436 101.907 15.0787C101.608 14.2992 101.195 13.6227 100.666 13.049C100.137 12.4754 99.5201 12.0268 98.815 11.7033C98.1099 11.365 97.3573 11.1959 96.5573 11.1959H90.7197ZM90.7197 36.5008H84.8821V4.86409H96.5573C97.6285 4.86409 98.6591 5.01852 99.6489 5.32739C100.639 5.62155 101.561 6.04808 102.415 6.60698C103.283 7.15117 104.069 7.81303 104.775 8.59255C105.493 9.35736 106.103 10.2104 106.605 11.1517C107.12 12.093 107.514 13.1005 107.785 14.1742C108.07 15.2479 108.212 16.3657 108.212 17.5276C108.212 18.616 108.083 19.675 107.826 20.7045C107.582 21.7341 107.222 22.7122 106.748 23.6388C106.287 24.5654 105.717 25.4184 105.039 26.1979C104.361 26.9775 103.602 27.654 102.761 28.2276L105.995 36.5008H99.7913L97.2488 30.1249L90.7197 30.1691V36.5008Z" fill="url(#paint1_linear_807_182)"/>
<path d="M149.331 36.5008H143.514V13.9095C143.514 13.4682 143.433 13.0564 143.27 12.674C143.121 12.2916 142.911 11.9607 142.639 11.6812C142.382 11.3871 142.077 11.1591 141.724 10.9973C141.372 10.8355 140.992 10.7546 140.585 10.7546C140.178 10.7546 139.799 10.8355 139.446 10.9973C139.094 11.1591 138.782 11.3871 138.51 11.6812C138.253 11.9607 138.049 12.2916 137.9 12.674C137.751 13.0564 137.677 13.4682 137.677 13.9095V36.5008H131.839V13.9095C131.839 13.4682 131.764 13.0564 131.615 12.674C131.466 12.2916 131.256 11.9607 130.985 11.6812C130.727 11.3871 130.422 11.1591 130.069 10.9973C129.717 10.8355 129.337 10.7546 128.93 10.7546C128.524 10.7546 128.144 10.8355 127.791 10.9973C127.439 11.1591 127.127 11.3871 126.856 11.6812C126.598 11.9607 126.395 12.2916 126.245 12.674C126.096 13.0564 126.022 13.4682 126.022 13.9095V36.5008H120.184V13.9095C120.184 12.6005 120.408 11.3723 120.855 10.2251C121.316 9.0632 121.94 8.05571 122.727 7.20265C123.527 6.33488 124.456 5.65832 125.513 5.17296C126.584 4.67289 127.724 4.42285 128.93 4.42285C130.015 4.42285 131.059 4.63612 132.063 5.06265C133.066 5.47447 133.968 6.07749 134.768 6.87172C135.568 6.07749 136.463 5.47447 137.453 5.06265C138.456 4.63612 139.5 4.42285 140.585 4.42285C141.792 4.42285 142.924 4.67289 143.982 5.17296C145.053 5.65832 145.982 6.33488 146.768 7.20265C147.569 8.05571 148.192 9.0632 148.64 10.2251C149.101 11.3723 149.331 12.6005 149.331 13.9095V36.5008Z" fill="url(#paint2_linear_807_182)"/>
<path d="M180.057 23.8594V17.5276C180.057 16.6598 179.901 15.8436 179.589 15.0787C179.291 14.2992 178.877 13.6227 178.348 13.049C177.819 12.4754 177.196 12.0268 176.477 11.7033C175.772 11.365 175.019 11.1959 174.219 11.1959C173.419 11.1959 172.66 11.365 171.941 11.7033C171.236 12.0268 170.619 12.4754 170.09 13.049C169.561 13.6227 169.141 14.2992 168.829 15.0787C168.531 15.8436 168.382 16.6598 168.382 17.5276V23.8594H180.057ZM185.894 36.5008H180.057V30.1691H168.382V36.5008H162.564V17.5276C162.564 15.7774 162.87 14.1374 163.48 12.6078C164.09 11.0635 164.917 9.7177 165.961 8.57049C167.019 7.42327 168.253 6.51873 169.663 5.85687C171.087 5.19502 172.606 4.86409 174.219 4.86409C175.833 4.86409 177.345 5.19502 178.755 5.85687C180.179 6.51873 181.42 7.42327 182.477 8.57049C183.535 9.7177 184.369 11.0635 184.979 12.6078C185.589 14.1374 185.894 15.7774 185.894 17.5276V36.5008Z" fill="url(#paint3_linear_807_182)"/>
<path d="M219.284 36.5008H199.29V4.86409H219.284V11.1959H205.128V17.5276H214.708V23.8594H205.128V30.1691H219.284V36.5008Z" fill="url(#paint4_linear_807_182)"/>
<path d="M229.67 14.3507C229.67 13.0417 229.901 11.8136 230.362 10.6664C230.823 9.51915 231.446 8.51901 232.233 7.66595C233.033 6.79818 233.962 6.11426 235.019 5.61419C236.077 5.11412 237.209 4.86409 238.416 4.86409H251.8V11.1959H238.416C238.009 11.1959 237.63 11.2767 237.277 11.4385C236.925 11.6003 236.613 11.8283 236.342 12.1224C236.084 12.4019 235.881 12.7328 235.731 13.1152C235.582 13.4976 235.508 13.9095 235.508 14.3507C235.508 14.7919 235.582 15.2111 235.731 15.6082C235.881 15.9906 236.084 16.3289 236.342 16.6231C236.613 16.9025 236.925 17.1231 237.277 17.2849C237.63 17.4467 238.009 17.5276 238.416 17.5276H244.254C245.461 17.5276 246.593 17.7776 247.651 18.2777C248.722 18.7631 249.651 19.4396 250.437 20.3074C251.237 21.1605 251.861 22.168 252.308 23.3299C252.769 24.4771 253 25.7052 253 27.0142C253 28.3232 252.769 29.5513 252.308 30.6986C251.861 31.8458 251.237 32.8533 250.437 33.721C249.651 34.5741 248.722 35.2507 247.651 35.7507C246.593 36.2508 245.461 36.5008 244.254 36.5008H231.297V30.1691H244.254C244.661 30.1691 245.04 30.0882 245.393 29.9264C245.745 29.7646 246.051 29.544 246.308 29.2645C246.579 28.9704 246.79 28.6321 246.939 28.2497C247.088 27.8673 247.162 27.4555 247.162 27.0142C247.162 26.573 247.088 26.1612 246.939 25.7788C246.79 25.3964 246.579 25.0654 246.308 24.786C246.051 24.4918 245.745 24.2638 245.393 24.1021C245.04 23.9403 244.661 23.8594 244.254 23.8594H238.416C237.209 23.8594 236.077 23.6093 235.019 23.1093C233.962 22.6092 233.033 21.9326 232.233 21.0796C231.446 20.2118 230.823 19.2043 230.362 18.0571C229.901 16.8952 229.67 15.6597 229.67 14.3507Z" fill="url(#paint5_linear_807_182)"/>
<path d="M27.0884 8.60575L32.0032 31.6402L36.825 28.7854C37.1378 28.6112 37.3408 28.2678 37.3568 27.8855L32.9853 4.90161L27.0884 8.60575Z" fill="#FF9703"/>
<path d="M27.0885 8.60573L32.9854 4.90167L20.3368 2.52389C20.2477 2.50129 20.12 2.48827 20.0436 2.47623C19.7524 2.43028 19.5363 2.46402 19.2916 2.60793L15.3123 4.8051L27.0885 8.60573Z" fill="#0400CF"/>
<path d="M22.9594 14.5115L25.0227 36.8316L29.9946 33.5674C30.3074 33.3931 30.5104 33.0497 30.5264 32.6674L28.8227 10.8262L22.9594 14.5115Z" fill="#0400CF"/>
<path d="M22.9594 14.5113L28.8262 10.826L14.2603 4.11568C14.109 4.03934 13.9593 3.98512 13.7984 3.98348C13.6151 3.9816 13.46 4.01207 13.278 4.08209L8.88599 6.50713L22.9594 14.5113Z" fill="#FF9703"/>
<path d="M24.1222 16.8535L9.21839 6.02655C8.92826 5.81081 8.55409 5.78141 8.23841 5.9494L2.99974 8.55528C2.89526 8.61081 2.83754 8.68756 2.79718 8.82385C3.05589 8.7625 3.32182 8.76176 3.54663 8.92868L9.11406 13.0546L11.6453 14.9703L18.0921 20.2927L24.1222 16.8535Z" fill="#0400CF"/>
<path d="M4.89195 27.908L3.89717 9.17873L3.32247 8.75234C3.0839 8.57821 2.80384 8.59827 2.78107 8.91033L3.70964 28.5129L3.71745 28.5091L17.8313 40.8606C18.0677 41.0386 18.3328 40.8335 18.3597 40.5219L18.3466 39.7951L4.89195 27.908Z" fill="url(#paint6_linear_807_182)"/>
<path d="M18.0916 20.2929L18.1255 40.9112L23.216 37.8706C23.5349 37.7103 23.7506 37.376 23.781 36.9948L24.1223 16.854L18.0916 20.2929Z" fill="#FF9703"/>
<defs>
<linearGradient id="paint0_linear_807_182" x1="45.3071" y1="20.235" x2="251.922" y2="20.235" gradientUnits="userSpaceOnUse">
<stop stop-color="#0400CF"/>
<stop offset="1" stop-color="#FF9900"/>
</linearGradient>
<linearGradient id="paint1_linear_807_182" x1="45.3071" y1="20.235" x2="251.922" y2="20.235" gradientUnits="userSpaceOnUse">
<stop stop-color="#0400CF"/>
<stop offset="1" stop-color="#FF9900"/>
</linearGradient>
<linearGradient id="paint2_linear_807_182" x1="45.3071" y1="20.235" x2="251.922" y2="20.235" gradientUnits="userSpaceOnUse">
<stop stop-color="#0400CF"/>
<stop offset="1" stop-color="#FF9900"/>
</linearGradient>
<linearGradient id="paint3_linear_807_182" x1="45.3071" y1="20.235" x2="251.922" y2="20.235" gradientUnits="userSpaceOnUse">
<stop stop-color="#0400CF"/>
<stop offset="1" stop-color="#FF9900"/>
</linearGradient>
<linearGradient id="paint4_linear_807_182" x1="45.3071" y1="20.235" x2="251.922" y2="20.235" gradientUnits="userSpaceOnUse">
<stop stop-color="#0400CF"/>
<stop offset="1" stop-color="#FF9900"/>
</linearGradient>
<linearGradient id="paint5_linear_807_182" x1="45.3071" y1="20.235" x2="251.922" y2="20.235" gradientUnits="userSpaceOnUse">
<stop stop-color="#0400CF"/>
<stop offset="1" stop-color="#FF9900"/>
</linearGradient>
<linearGradient id="paint6_linear_807_182" x1="-0.463219" y1="10.7929" x2="18.3808" y2="40.7452" gradientUnits="userSpaceOnUse">
<stop offset="0.1406" stop-color="#0000CF"/>
<stop offset="0.1446" stop-color="#0302CC"/>
<stop offset="0.1909" stop-color="#2617B1"/>
<stop offset="0.238" stop-color="#41289B"/>
<stop offset="0.2855" stop-color="#55348B"/>
<stop offset="0.3338" stop-color="#603B82"/>
<stop offset="0.3841" stop-color="#643D7F"/>
<stop offset="0.7207" stop-color="#F5A415"/>
<stop offset="1" stop-color="#F88F09"/>
</linearGradient>
</defs>
</svg>
